<?xml version="1.0" encoding="utf-8"?>
<!-- Generator: Adobe Illustrator 13.0.0, SVG Export Plug-In . SVG Version: 6.00 Build 14948)  -->
<!DOCTYPE svg PUBLIC "-//W3C//DTD SVG 1.1//EN" "http://www.w3.org/Graphics/SVG/1.1/DTD/svg11.dtd">
<svg version="1.1" id="Layer_1" xmlns="http://www.w3.org/2000/svg" xmlns:xlink="http://www.w3.org/1999/xlink" x="0px" y="0px"
	 width="137.285px" height="27.274px" viewBox="0 0 137.285 27.274" enable-background="new 0 0 137.285 27.274"
	 xml:space="preserve">
<g>
	<path fill="#FFFFFF" d="M7.068,15.028c-0.315,0.215-0.684,0.459-1.106,0.73c-0.423,0.272-0.863,0.53-1.321,0.773
		c-0.458,0.244-0.917,0.451-1.375,0.623c-0.458,0.172-0.885,0.266-1.278,0.279c-0.394,0.015-0.738-0.078-1.031-0.279
		c-0.294-0.2-0.505-0.544-0.634-1.031c0-0.43,0.154-0.842,0.462-1.235c0.308-0.394,0.709-0.759,1.203-1.096
		c0.494-0.336,1.042-0.637,1.644-0.902c0.602-0.265,1.192-0.49,1.772-0.677c0.58-0.186,1.117-0.326,1.611-0.419
		c0.494-0.093,0.884-0.132,1.171-0.118C8.5,10.746,8.833,9.854,9.185,9.002C9.535,8.15,9.947,7.301,10.42,6.456
		c0.129-0.243,0.315-0.372,0.559-0.387c0.243-0.014,0.437,0.115,0.58,0.387c-0.229,0.673-0.505,1.343-0.827,2.009
		s-0.638,1.325-0.945,1.977c-0.308,0.652-0.591,1.296-0.849,1.934c-0.258,0.638-0.444,1.268-0.559,1.891
		c-0.115,0.623-0.136,1.231-0.064,1.826c0.071,0.595,0.286,1.171,0.645,1.729c0,0.215-0.079,0.369-0.236,0.462
		c-0.158,0.093-0.337,0.125-0.537,0.097c-0.344-0.502-0.602-1.035-0.773-1.601S7.125,15.63,7.068,15.028z M1.461,15.974
		c0.215,0.258,0.505,0.401,0.87,0.43c0.365,0.029,0.759-0.021,1.182-0.15c0.422-0.129,0.852-0.318,1.289-0.569
		c0.437-0.251,0.834-0.533,1.192-0.849c0.358-0.315,0.648-0.645,0.87-0.988c0.222-0.344,0.333-0.673,0.333-0.988
		c-0.229,0-0.526,0.04-0.892,0.118C5.94,13.056,5.546,13.17,5.124,13.32c-0.423,0.15-0.853,0.322-1.289,0.516
		c-0.437,0.193-0.831,0.408-1.182,0.645c-0.351,0.236-0.638,0.479-0.859,0.73C1.572,15.462,1.461,15.716,1.461,15.974z"/>
	<path fill="#FFFFFF" d="M13.965,12.88c0-0.143-0.021-0.254-0.064-0.333c-0.043-0.079-0.093-0.157-0.15-0.236
		c-0.058-0.079-0.107-0.161-0.15-0.247s-0.064-0.2-0.064-0.344c0-0.129,0.068-0.261,0.204-0.397c0.136-0.136,0.29-0.279,0.462-0.43
		s0.344-0.308,0.516-0.473c0.172-0.165,0.293-0.34,0.365-0.526c0.057-0.157,0.157-0.437,0.301-0.838
		c0.143-0.401,0.293-0.831,0.451-1.289c0.157-0.458,0.304-0.892,0.44-1.3c0.136-0.408,0.226-0.698,0.269-0.87h-4.211
		c0-0.043,0.007-0.114,0.021-0.215c0.014-0.1,0.043-0.204,0.086-0.312s0.097-0.2,0.161-0.279c0.064-0.079,0.14-0.118,0.226-0.118
		c1.948,0.086,3.624,0.158,5.027,0.215c1.403,0.058,2.596,0.115,3.577,0.172c0.981,0.058,1.772,0.129,2.374,0.215
		s1.078,0.211,1.429,0.376c0.351,0.165,0.602,0.376,0.752,0.634s0.254,0.587,0.312,0.988c-0.058,0.702-0.294,1.275-0.709,1.719
		c-0.416,0.444-0.935,0.81-1.558,1.096c-0.623,0.287-1.325,0.512-2.105,0.677c-0.781,0.165-1.562,0.312-2.342,0.44
		c-0.781,0.129-1.533,0.262-2.256,0.397c-0.724,0.136-1.35,0.312-1.88,0.526c-0.201,0.387-0.354,0.874-0.462,1.461
		c-0.107,0.587-0.208,1.164-0.301,1.729c-0.093,0.565-0.211,1.067-0.354,1.504c-0.144,0.437-0.351,0.698-0.623,0.784
		c-0.258-0.058-0.416-0.101-0.473-0.129c-0.058-0.028-0.086-0.121-0.086-0.279L13.965,12.88z M16.049,11.011
		c0.487-0.057,1.038-0.136,1.654-0.236c0.616-0.1,1.246-0.222,1.891-0.365c0.645-0.143,1.285-0.312,1.923-0.505
		c0.637-0.193,1.214-0.419,1.729-0.677s0.949-0.548,1.3-0.87c0.351-0.322,0.569-0.684,0.655-1.085c0-0.186-0.118-0.369-0.354-0.548
		c-0.236-0.179-0.645-0.336-1.225-0.473c-0.58-0.136-1.372-0.243-2.374-0.322c-1.003-0.079-2.263-0.118-3.781-0.118L16.049,11.011z"
		/>
	<path fill="#FFFFFF" d="M26.533,17.606c-0.072-0.157-0.072-0.477,0-0.956c0.071-0.479,0.193-1.01,0.365-1.59
		s0.369-1.164,0.591-1.751c0.222-0.587,0.444-1.074,0.666-1.461c0.222-0.387,0.422-0.616,0.602-0.688
		c0.179-0.071,0.312,0.115,0.397,0.559c-0.072,0.229-0.161,0.534-0.269,0.913c-0.107,0.38-0.222,0.784-0.344,1.214
		c-0.122,0.43-0.251,0.87-0.387,1.321c-0.136,0.451-0.258,0.856-0.365,1.214c-0.107,0.358-0.197,0.652-0.269,0.881
		c-0.072,0.229-0.115,0.344-0.129,0.344H26.533z M28.338,7.272c0.172-0.114,0.347-0.161,0.526-0.14
		c0.179,0.021,0.333,0.09,0.462,0.204c0.129,0.115,0.218,0.272,0.269,0.473c0.05,0.201,0.032,0.423-0.054,0.666
		c-0.158,0.115-0.312,0.154-0.462,0.118c-0.15-0.036-0.283-0.118-0.397-0.247c-0.115-0.129-0.204-0.29-0.269-0.483
		S28.323,7.473,28.338,7.272z"/>
	<path fill="#FFFFFF" d="M31.582,16.554c-0.63-0.415-1.014-0.885-1.149-1.407c-0.136-0.522-0.111-1.06,0.075-1.611
		c0.186-0.551,0.483-1.085,0.892-1.601s0.845-0.974,1.311-1.375c0.465-0.401,0.913-0.72,1.343-0.956s0.759-0.347,0.988-0.333
		c0.172,0,0.358,0.021,0.559,0.064c0.2,0.043,0.383,0.107,0.548,0.193c0.165,0.086,0.304,0.201,0.419,0.344
		c0.114,0.144,0.172,0.322,0.172,0.537c0.014,0.373-0.072,0.724-0.258,1.053c-0.187,0.33-0.43,0.641-0.73,0.935
		c-0.301,0.294-0.641,0.562-1.021,0.806c-0.38,0.244-0.767,0.458-1.16,0.645c-0.394,0.187-0.77,0.348-1.128,0.483
		c-0.358,0.136-0.659,0.24-0.902,0.312c0.372,0.588,0.841,1.039,1.407,1.354c0.565,0.315,1.167,0.537,1.805,0.666
		c0.637,0.129,1.285,0.187,1.944,0.172c0.659-0.014,1.271-0.054,1.837-0.118c0.565-0.064,1.053-0.132,1.461-0.204
		c0.408-0.071,0.684-0.107,0.827-0.107c-0.115,0.301-0.369,0.548-0.763,0.741c-0.394,0.193-0.867,0.341-1.418,0.44
		c-0.552,0.1-1.157,0.15-1.815,0.15c-0.659,0-1.311-0.047-1.955-0.14s-1.257-0.226-1.837-0.397S31.969,16.812,31.582,16.554z
		 M35.6,10.817c-0.115-0.272-0.33-0.39-0.645-0.354c-0.315,0.036-0.652,0.176-1.01,0.419c-0.358,0.244-0.698,0.559-1.021,0.945
		s-0.548,0.788-0.677,1.203c0.329,0,0.666-0.05,1.01-0.15c0.344-0.1,0.669-0.247,0.978-0.44c0.308-0.193,0.58-0.426,0.816-0.698
		C35.288,11.469,35.471,11.161,35.6,10.817z"/>
	<path fill="#FFFFFF" d="M48.727,17.521c-0.215-0.301-0.322-0.658-0.322-1.074c0-0.415,0.046-0.849,0.14-1.3
		c0.093-0.451,0.189-0.898,0.29-1.343c0.1-0.444,0.146-0.855,0.14-1.235c-0.007-0.379-0.111-0.698-0.312-0.956
		c-0.201-0.258-0.559-0.422-1.074-0.494c-0.473,0-0.906,0.147-1.3,0.44c-0.394,0.294-0.756,0.666-1.085,1.117
		c-0.33,0.451-0.638,0.935-0.924,1.45c-0.287,0.516-0.566,0.999-0.838,1.45c-0.272,0.451-0.541,0.823-0.806,1.117
		c-0.265,0.294-0.534,0.44-0.806,0.44c-0.043,0-0.115-0.05-0.215-0.15c-0.101-0.1-0.15-0.172-0.15-0.215
		c0.157-0.473,0.351-0.978,0.58-1.515c0.229-0.537,0.455-1.078,0.677-1.622c0.222-0.544,0.419-1.088,0.591-1.633
		c0.172-0.544,0.293-1.067,0.365-1.568c0.272-0.114,0.462-0.025,0.569,0.269c0.107,0.294,0.168,0.698,0.183,1.214
		c0.458-0.587,0.995-1.049,1.611-1.386c0.616-0.336,1.282-0.505,1.998-0.505c0.544,0.101,0.967,0.305,1.268,0.612
		c0.301,0.308,0.512,0.677,0.634,1.106c0.122,0.43,0.168,0.902,0.14,1.418c-0.029,0.516-0.101,1.031-0.215,1.547
		c-0.115,0.516-0.258,1.018-0.43,1.504c-0.172,0.487-0.344,0.917-0.516,1.289c-0.015,0-0.043,0.004-0.086,0.011
		S48.755,17.521,48.727,17.521z M47.631,5.06c-0.773,0.616-1.347,1.149-1.719,1.601c-0.373,0.451-0.659,0.795-0.859,1.031
		c-0.201,0.236-0.365,0.351-0.494,0.344c-0.129-0.007-0.344-0.154-0.645-0.44l3.051-3.588c0.272,0,0.451,0.122,0.537,0.365
		C47.588,4.616,47.631,4.845,47.631,5.06z"/>
	<path fill="#FFFFFF" d="M51.004,14.792c-0.086-0.53-0.04-1.117,0.14-1.762c0.179-0.645,0.444-1.246,0.795-1.805
		c0.351-0.559,0.773-1.027,1.268-1.407c0.494-0.379,1.013-0.569,1.558-0.569c0.143,0,0.261,0.029,0.354,0.086
		c0.093,0.058,0.175,0.129,0.247,0.215c0.071,0.086,0.146,0.176,0.226,0.269c0.079,0.093,0.175,0.168,0.29,0.226
		c0.172-0.057,0.312-0.114,0.419-0.172c0.107-0.057,0.189-0.086,0.247-0.086c0.057,0,0.093,0.047,0.107,0.14
		c0.014,0.093,0.007,0.254-0.021,0.483c0,0.172-0.004,0.423-0.011,0.752c-0.007,0.33-0.025,0.663-0.054,0.999
		c-0.029,0.337-0.068,0.627-0.118,0.87c-0.05,0.244-0.118,0.365-0.204,0.365h-0.752c-0.072-0.458-0.165-0.956-0.279-1.493
		c-0.115-0.537-0.272-1.035-0.473-1.493c-0.487,0.172-0.928,0.451-1.321,0.838c-0.394,0.387-0.72,0.802-0.978,1.246
		c-0.258,0.444-0.43,0.881-0.516,1.311s-0.064,0.781,0.064,1.053c0.372,0.602,0.798,1.053,1.278,1.354
		c0.479,0.301,0.981,0.494,1.504,0.58c0.522,0.086,1.045,0.094,1.568,0.021c0.522-0.071,1.021-0.176,1.493-0.312
		s0.902-0.272,1.289-0.408s0.694-0.226,0.924-0.269c0.086-0.057,0.175-0.093,0.269-0.107c0.093-0.014,0.175-0.007,0.247,0.021
		c0.071,0.029,0.122,0.075,0.15,0.14c0.028,0.064,0.021,0.14-0.021,0.226c-0.416,0.344-0.917,0.638-1.504,0.881
		c-0.587,0.244-1.203,0.423-1.848,0.537s-1.304,0.154-1.977,0.118c-0.673-0.036-1.296-0.161-1.869-0.376
		c-0.573-0.215-1.082-0.522-1.525-0.924C51.526,15.938,51.204,15.423,51.004,14.792z"/>
	<path fill="#FFFFFF" d="M63.486,17.542c-0.172,0-0.365-0.015-0.58-0.043s-0.412-0.082-0.591-0.161
		c-0.179-0.079-0.319-0.193-0.419-0.344c-0.101-0.15-0.115-0.354-0.043-0.612c0.401-0.415,0.906-0.82,1.515-1.214
		c0.608-0.394,1.221-0.795,1.837-1.203c0.616-0.408,1.178-0.827,1.687-1.257c0.508-0.43,0.863-0.888,1.063-1.375
		c-0.373-0.229-0.806-0.354-1.3-0.376s-1.01-0.003-1.547,0.054c-0.537,0.058-1.071,0.111-1.601,0.161
		c-0.53,0.05-1.01,0.025-1.439-0.075c0-0.387,0.161-0.662,0.483-0.827c0.322-0.165,0.705-0.269,1.149-0.312
		c0.444-0.043,0.888-0.05,1.332-0.021c0.444,0.029,0.788,0.043,1.031,0.043c0.329,0,0.68,0.011,1.053,0.032
		c0.372,0.021,0.709,0.079,1.01,0.172c0.301,0.093,0.548,0.233,0.741,0.419c0.193,0.187,0.283,0.444,0.269,0.773
		c0,0.501-0.211,0.974-0.634,1.418c-0.423,0.444-0.935,0.863-1.536,1.257c-0.602,0.394-1.221,0.771-1.858,1.128
		c-0.638,0.358-1.171,0.709-1.601,1.053c1.303-0.014,2.417-0.093,3.341-0.236c0.924-0.143,1.726-0.271,2.406-0.387
		c0.681-0.114,1.271-0.179,1.772-0.193c0.501-0.014,0.988,0.101,1.461,0.344c-1.934,0.373-3.495,0.677-4.684,0.913
		c-1.189,0.236-2.113,0.419-2.771,0.548c-0.659,0.129-1.103,0.219-1.332,0.269c-0.229,0.05-0.354,0.079-0.376,0.086
		s0.007,0.003,0.086-0.011C63.49,17.549,63.515,17.542,63.486,17.542z"/>
	<path fill="#FFFFFF" d="M76.764,17.929c0,0.028-0.226-0.072-0.677-0.301s-0.964-0.623-1.536-1.182
		c-0.573-0.559-1.106-1.307-1.601-2.245c-0.494-0.938-0.784-2.095-0.87-3.47c0-0.157,0.014-0.301,0.043-0.43
		c0.028-0.129,0.143-0.229,0.344-0.301c0.129,0,0.243,0.129,0.344,0.387c0.1,0.258,0.215,0.584,0.344,0.978
		c0.129,0.394,0.279,0.838,0.451,1.332s0.397,0.978,0.677,1.45s0.623,0.91,1.031,1.311c0.408,0.401,0.913,0.709,1.515,0.924
		c0.172,0,0.348-0.143,0.526-0.43c0.179-0.286,0.368-0.648,0.569-1.085c0.2-0.437,0.404-0.917,0.612-1.439
		c0.208-0.522,0.419-1.027,0.634-1.515c0.215-0.487,0.434-0.917,0.655-1.289c0.222-0.372,0.447-0.63,0.677-0.773
		c0.014,0.043,0.061,0.14,0.14,0.29s0.118,0.24,0.118,0.269c-0.201,0.63-0.416,1.235-0.645,1.815
		c-0.229,0.58-0.477,1.192-0.741,1.837s-0.548,1.35-0.849,2.116s-0.623,1.654-0.967,2.664s-0.717,2.17-1.117,3.48
		c-0.401,1.311-0.831,2.825-1.289,4.544l-0.924-0.559L76.764,17.929z"/>
	<path fill="#FFFFFF" d="M85.529,4.157C85.973,3.942,86.234,4,86.313,4.329c0.079,0.33,0.036,0.842-0.129,1.536
		c-0.165,0.695-0.419,1.525-0.763,2.492s-0.709,1.973-1.096,3.019c0.157-0.086,0.391-0.15,0.698-0.193s0.694-0.111,1.16-0.204
		c0.466-0.093,1.021-0.24,1.665-0.44c0.645-0.2,1.382-0.508,2.213-0.924c0.286,0.301,0.34,0.577,0.161,0.827
		c-0.179,0.251-0.487,0.477-0.924,0.677c-0.437,0.201-0.935,0.376-1.493,0.526s-1.074,0.269-1.547,0.354s-0.838,0.144-1.096,0.172
		c-0.258,0.029-0.301,0.021-0.129-0.021c0.372,0.287,0.823,0.602,1.354,0.945c0.529,0.344,1.063,0.698,1.601,1.063
		s1.046,0.728,1.525,1.085c0.479,0.358,0.855,0.695,1.128,1.01c0.271,0.315,0.408,0.598,0.408,0.849s-0.208,0.447-0.623,0.591
		c-0.172-0.372-0.48-0.744-0.924-1.117c-0.444-0.372-0.963-0.77-1.558-1.192s-1.231-0.874-1.912-1.354
		c-0.681-0.479-1.351-1.013-2.009-1.601c-0.201,0.544-0.397,1.078-0.591,1.601c-0.193,0.523-0.369,1.021-0.526,1.493
		c-0.158,0.502-0.309,0.896-0.451,1.182c-0.144,0.287-0.279,0.49-0.408,0.612s-0.244,0.169-0.344,0.14
		c-0.101-0.028-0.193-0.107-0.279-0.236c0.043-0.357,0.154-0.838,0.333-1.439s0.394-1.282,0.645-2.041
		c0.251-0.759,0.526-1.564,0.827-2.417c0.301-0.852,0.594-1.704,0.881-2.557c0.286-0.852,0.555-1.676,0.806-2.471
		S85.371,4.788,85.529,4.157z"/>
	<path fill="#FFFFFF" d="M97.883,9.915c0.816,0.158,1.382,0.44,1.697,0.849c0.314,0.408,0.455,0.881,0.419,1.418
		s-0.222,1.103-0.559,1.697c-0.337,0.595-0.752,1.153-1.246,1.676s-1.038,0.974-1.633,1.354s-1.167,0.626-1.719,0.741
		c-0.552,0.114-1.057,0.064-1.515-0.15c-0.459-0.215-0.803-0.666-1.031-1.354c0-0.701,0.114-1.422,0.344-2.159
		c0.229-0.737,0.572-1.407,1.031-2.009c0.458-0.602,1.038-1.096,1.74-1.482C96.113,10.108,96.938,9.915,97.883,9.915z M93.393,15.78
		c0,0.158,0,0.301,0,0.43s0.021,0.247,0.064,0.354s0.114,0.19,0.215,0.247c0.1,0.058,0.25,0.086,0.451,0.086
		c0.486-0.028,0.984-0.183,1.493-0.462s0.984-0.619,1.429-1.021c0.443-0.4,0.827-0.841,1.149-1.321
		c0.322-0.479,0.54-0.938,0.655-1.375c0.114-0.437,0.107-0.831-0.021-1.182c-0.129-0.351-0.43-0.598-0.902-0.741
		c-0.516,0-1.042,0.176-1.579,0.526c-0.537,0.351-1.024,0.781-1.461,1.289c-0.437,0.509-0.795,1.053-1.074,1.633
		S93.393,15.337,93.393,15.78z"/>
	<path fill="#FFFFFF" d="M101.557,10.527c0.143,0.136,0.254,0.294,0.333,0.473c0.079,0.179,0.132,0.354,0.161,0.526
		c0.028,0.172,0.043,0.287,0.043,0.344c0.014,0.158,0.007,0.466-0.021,0.924c-0.029,0.458-0.064,0.953-0.107,1.482
		c-0.043,0.53-0.082,1.024-0.118,1.482c-0.036,0.459-0.054,0.767-0.054,0.924c0.215-0.014,0.415-0.143,0.602-0.387
		c0.186-0.243,0.369-0.548,0.548-0.913s0.361-0.755,0.548-1.171c0.186-0.415,0.391-0.812,0.612-1.192
		c0.222-0.379,0.473-0.709,0.752-0.988s0.604-0.455,0.978-0.526c0.215,0,0.379,0.111,0.494,0.333c0.114,0.222,0.2,0.501,0.258,0.838
		c0.057,0.337,0.104,0.698,0.14,1.085c0.035,0.387,0.078,0.749,0.129,1.085c0.05,0.337,0.125,0.616,0.226,0.838
		c0.1,0.222,0.243,0.333,0.43,0.333c0.645-0.473,1.185-0.924,1.622-1.354c0.437-0.43,0.819-0.881,1.149-1.354
		c0.329-0.473,0.63-0.988,0.902-1.547c0.271-0.559,0.572-1.203,0.902-1.934l0.73,0.086c-0.043,0.573-0.165,1.149-0.365,1.729
		c-0.201,0.58-0.455,1.139-0.763,1.676c-0.309,0.537-0.645,1.042-1.01,1.515s-0.738,0.881-1.117,1.225
		c-0.38,0.344-0.749,0.616-1.106,0.816c-0.358,0.201-0.674,0.294-0.945,0.279c-0.43,0-0.777-0.15-1.042-0.451
		c-0.266-0.301-0.466-0.655-0.602-1.063c-0.137-0.408-0.233-0.827-0.29-1.257c-0.058-0.43-0.101-0.773-0.129-1.031
		c-0.244,0.172-0.477,0.437-0.698,0.795c-0.222,0.358-0.437,0.738-0.645,1.139c-0.208,0.401-0.423,0.803-0.645,1.203
		c-0.222,0.401-0.458,0.738-0.709,1.01s-0.52,0.451-0.806,0.537c-0.287,0.086-0.609,0.021-0.967-0.193v-7.477
		C101.22,10.338,101.413,10.392,101.557,10.527z"/>
	<path fill="#FFFFFF" d="M113.502,17.392c0.344-0.114,0.744-0.193,1.203-0.236c0.458-0.043,0.938-0.078,1.439-0.107
		c0.501-0.028,1.006-0.064,1.515-0.107c0.508-0.043,0.98-0.114,1.418-0.215c0.437-0.1,0.819-0.247,1.149-0.44
		c0.329-0.193,0.572-0.454,0.73-0.784c-0.187-0.372-0.473-0.662-0.859-0.87c-0.387-0.208-0.824-0.376-1.311-0.505
		c-0.487-0.129-1.007-0.229-1.558-0.301c-0.552-0.071-1.074-0.154-1.568-0.247c-0.494-0.093-0.938-0.215-1.332-0.365
		c-0.395-0.15-0.691-0.369-0.892-0.655c0-0.243,0.157-0.487,0.473-0.73c0.314-0.243,0.716-0.476,1.203-0.698
		c0.486-0.222,1.021-0.426,1.601-0.612c0.58-0.186,1.135-0.351,1.665-0.494c0.529-0.143,0.995-0.258,1.396-0.344
		c0.4-0.086,0.673-0.129,0.816-0.129c0.172,0.086,0.282,0.187,0.333,0.301c0.05,0.115,0.061,0.258,0.032,0.43
		c-0.545,0.101-1.057,0.233-1.536,0.397c-0.48,0.165-0.949,0.34-1.407,0.526c-0.459,0.187-0.917,0.369-1.375,0.548
		c-0.459,0.179-0.938,0.326-1.439,0.44c0.301,0.072,0.68,0.147,1.139,0.226c0.458,0.079,0.941,0.168,1.45,0.269
		c0.508,0.101,1.021,0.226,1.536,0.376s0.98,0.337,1.396,0.559c0.415,0.222,0.752,0.487,1.01,0.795s0.387,0.67,0.387,1.085
		c-0.072,0.487-0.269,0.877-0.591,1.171s-0.72,0.516-1.192,0.666s-1.007,0.251-1.601,0.301c-0.595,0.05-1.196,0.082-1.805,0.097
		c-0.609,0.014-1.211,0.025-1.805,0.032c-0.595,0.007-1.136,0.039-1.622,0.097l-0.086-0.709L113.502,17.392z"/>
	<path fill="#FFFFFF" d="M126.887,4.157c0.443-0.215,0.705-0.157,0.784,0.172c0.078,0.33,0.035,0.842-0.129,1.536
		c-0.165,0.695-0.419,1.525-0.763,2.492s-0.709,1.973-1.096,3.019c0.157-0.086,0.39-0.15,0.698-0.193
		c0.308-0.043,0.694-0.111,1.16-0.204c0.465-0.093,1.021-0.24,1.665-0.44c0.645-0.2,1.382-0.508,2.213-0.924
		c0.286,0.301,0.34,0.577,0.161,0.827c-0.18,0.251-0.487,0.477-0.924,0.677c-0.438,0.201-0.935,0.376-1.493,0.526
		s-1.074,0.269-1.547,0.354s-0.838,0.144-1.096,0.172c-0.258,0.029-0.301,0.021-0.129-0.021c0.372,0.287,0.823,0.602,1.354,0.945
		c0.529,0.344,1.063,0.698,1.601,1.063s1.045,0.728,1.525,1.085c0.479,0.358,0.855,0.695,1.128,1.01
		c0.271,0.315,0.408,0.598,0.408,0.849s-0.208,0.447-0.623,0.591c-0.172-0.372-0.48-0.744-0.924-1.117
		c-0.444-0.372-0.964-0.77-1.558-1.192c-0.595-0.423-1.232-0.874-1.912-1.354c-0.681-0.479-1.351-1.013-2.009-1.601
		c-0.201,0.544-0.397,1.078-0.591,1.601c-0.193,0.523-0.369,1.021-0.526,1.493c-0.158,0.502-0.309,0.896-0.451,1.182
		c-0.144,0.287-0.279,0.49-0.408,0.612s-0.244,0.169-0.344,0.14c-0.101-0.028-0.193-0.107-0.279-0.236
		c0.043-0.357,0.153-0.838,0.333-1.439c0.179-0.602,0.394-1.282,0.645-2.041c0.25-0.759,0.526-1.564,0.827-2.417
		c0.301-0.852,0.594-1.704,0.881-2.557c0.286-0.852,0.555-1.676,0.806-2.471C126.524,5.5,126.729,4.788,126.887,4.157z"/>
	<path fill="#FFFFFF" d="M133.805,17.606c-0.072-0.157-0.072-0.477,0-0.956c0.071-0.479,0.193-1.01,0.365-1.59
		s0.368-1.164,0.591-1.751c0.222-0.587,0.443-1.074,0.666-1.461c0.222-0.387,0.422-0.616,0.602-0.688
		c0.179-0.071,0.312,0.115,0.397,0.559c-0.072,0.229-0.161,0.534-0.269,0.913c-0.107,0.38-0.223,0.784-0.344,1.214
		c-0.122,0.43-0.251,0.87-0.387,1.321c-0.137,0.451-0.258,0.856-0.365,1.214c-0.107,0.358-0.197,0.652-0.269,0.881
		c-0.072,0.229-0.115,0.344-0.129,0.344H133.805z M135.609,7.272c0.172-0.114,0.347-0.161,0.526-0.14
		c0.179,0.021,0.333,0.09,0.462,0.204c0.129,0.115,0.218,0.272,0.269,0.473c0.05,0.201,0.032,0.423-0.054,0.666
		c-0.158,0.115-0.312,0.154-0.462,0.118c-0.15-0.036-0.283-0.118-0.397-0.247c-0.115-0.129-0.204-0.29-0.269-0.483
		S135.595,7.473,135.609,7.272z"/>
</g>
</svg>
